<?xml version="1.0" encoding="utf-8"?>
<!-- Generator: Adobe Illustrator 21.0.0, SVG Export Plug-In . SVG Version: 6.00 Build 0)  -->
<svg version="1.0" id="Layer_1" xmlns="http://www.w3.org/2000/svg" xmlns:xlink="http://www.w3.org/1999/xlink" x="0px" y="0px"
	 viewBox="0 0 55 55" enable-background="new 0 0 55 55" xml:space="preserve">
<g>
	<circle fill="#F9DB2C" stroke="#000000" stroke-width="2" stroke-miterlimit="10" cx="27.5" cy="27.5" r="26.1"/>
	<ellipse transform="matrix(0.171 -0.9853 0.9853 0.171 -7.8727 34.6436)" cx="16.6" cy="22" rx="4" ry="1.9"/>
	<ellipse transform="matrix(0.171 -0.9853 0.9853 0.171 2.5087 46.9815)" cx="29.2" cy="22" rx="4" ry="1.9"/>
	<g>
		<path fill="none" stroke="#000000" stroke-miterlimit="10" d="M41,34.2c0,0-5.2,9.8-15.9,9.6S8.4,32.7,8.4,32.7"/>
		<path d="M40.5,35.1c0.2,0.2,3.7-0.6,3-1.9c-0.5-1-1.4-3.1-2.1-3.1c-0.4,0-0.5,1.8-0.4,2.6C41,33.5,39.9,34.6,40.5,35.1z"/>
		<path d="M9.2,34c-0.2,0.1-3.1-0.5-2.5-1.5c0.5-0.8,1.2-2.3,1.9-2.3c0.3,0,0.4,1.4,0.4,2C9,32.8,9.7,33.7,9.2,34z"/>
	</g>
</g>
<g>
</g>
<g>
</g>
<g>
</g>
<g>
</g>
<g>
</g>
<g>
</g>
<g>
</g>
<g>
</g>
<g>
</g>
<g>
</g>
<g>
</g>
<g>
</g>
<g>
</g>
<g>
</g>
<g>
</g>
</svg>
